<svg xmlns="http://www.w3.org/2000/svg" xmlns:xlink="http://www.w3.org/1999/xlink" width="259.286" height="34" viewBox="0 0 259.286 34"><defs><style>.a{fill:none;}.b{clip-path:url(#a);}.c{fill:url(#b);}.d{clip-path:url(#c);}.e{fill:#1a1311;}</style><clipPath id="a"><path class="a" d="M17.537,0a3.8,3.8,0,0,0-2.764,1.111,2.712,2.712,0,0,0-.544.975,2.716,2.716,0,0,0-2.177.988,2.468,2.468,0,0,0-.459.984,2.772,2.772,0,0,0-.283-.014,2.131,2.131,0,0,0-1.9,1.05,2.563,2.563,0,0,0-.322,1.776,2.714,2.714,0,0,0-1.223-.3h0a2.545,2.545,0,0,0-.71.1A2.086,2.086,0,0,0,5.863,7.709a2.585,2.585,0,0,0-.269.819H5.5a2.534,2.534,0,0,0-2.432,1.9c-.019.052-.035.1-.05.155a3.325,3.325,0,0,0-2.866,2.7A3.841,3.841,0,0,0,.481,16.2a2.67,2.67,0,0,0,.829.816,2.92,2.92,0,0,0,.225,2.11,2.412,2.412,0,0,0,1,.949,2.594,2.594,0,0,0-.173.85,2.1,2.1,0,0,0,.6,1.542,2.583,2.583,0,0,0,1.238.707A2.566,2.566,0,0,0,3.6,24.839,2.2,2.2,0,0,0,4.948,26.85,2.436,2.436,0,0,0,4.9,28.234a2.91,2.91,0,0,0,1.3,1.66,2.7,2.7,0,0,0-.022,1.159A3.872,3.872,0,0,0,8,33.4a4.2,4.2,0,0,0,2.035.6,2.67,2.67,0,0,0,1.848-.7,3.146,3.146,0,0,0,1.5.422,2.355,2.355,0,0,0,1.749-.77,2.323,2.323,0,0,0,1.391.492,2.1,2.1,0,0,0,1.011-.263,2.489,2.489,0,0,0,.732-.606,2.33,2.33,0,0,0,.988.921,1.915,1.915,0,0,0,.852.2,2.03,2.03,0,0,0,1.359-.55,2.119,2.119,0,0,0,1.485.6,2.674,2.674,0,0,0,1.487-.5,2.439,2.439,0,0,0,1.536.54,3.631,3.631,0,0,0,2.066-.767,3.8,3.8,0,0,0,1.46-2.363,2.769,2.769,0,0,0-.117-1.21,2.857,2.857,0,0,0,1.069-1.662,2.486,2.486,0,0,0-.169-1.457,2.225,2.225,0,0,0,1.115-1.957,2.164,2.164,0,0,0-.4-1.247,2.467,2.467,0,0,0,1.145-.664,2.1,2.1,0,0,0,.605-1.542,2.609,2.609,0,0,0-.173-.85,2.4,2.4,0,0,0,1-.948,2.922,2.922,0,0,0,.224-2.112,2.68,2.68,0,0,0,.83-.817,3.837,3.837,0,0,0,.332-2.916,3.322,3.322,0,0,0-2.866-2.7c-.016-.051-.032-.1-.05-.155a2.533,2.533,0,0,0-2.431-1.9h-.1a2.6,2.6,0,0,0-.27-.819,2.09,2.09,0,0,0-1.289-1.037,2.549,2.549,0,0,0-.709-.1,2.716,2.716,0,0,0-1.238.306,2.565,2.565,0,0,0-.321-1.784,2.129,2.129,0,0,0-1.9-1.05,2.8,2.8,0,0,0-.284.014,2.478,2.478,0,0,0-.458-.984,2.717,2.717,0,0,0-2.175-.988,2.683,2.683,0,0,0-.546-.984A3.745,3.745,0,0,0,17.59,0Z" transform="translate(0)"/></clipPath><radialGradient id="b" cx="0.5" cy="0.5" r="0.509" gradientTransform="matrix(0.95, 0, 0, -1, 0, 2)" gradientUnits="objectBoundingBox"><stop offset="0" stop-color="#f5f5f6"/><stop offset="0.1" stop-color="#f3f1f0"/><stop offset="0.23" stop-color="#eee9e0"/><stop offset="0.376" stop-color="#e7dac5"/><stop offset="0.534" stop-color="#ddc69f"/><stop offset="0.703" stop-color="#d0ac6f"/><stop offset="0.876" stop-color="#c08c35"/><stop offset="1" stop-color="#b47408"/></radialGradient><clipPath id="c"><rect class="a" width="259.286" height="34"/></clipPath></defs><g class="b"><rect class="c" width="35.657" height="34" transform="translate(-0.277 0)"/></g><g class="d"><path class="e" d="M28.951,11.919a.578.578,0,0,1-.577-.579V7.758a.577.577,0,1,1,1.154,0V11.34a.578.578,0,0,1-.577.579" transform="translate(-11.423 -2.874)"/><path class="e" d="M44.466,25.287a.58.58,0,0,1-.148-1.139l3.445-.922a.579.579,0,0,1,.3,1.12l-3.445.922a.555.555,0,0,1-.149.02" transform="translate(-17.669 -9.289)"/><path class="e" d="M11.2,25.286a.555.555,0,0,1-.149-.02L7.6,24.345a.58.58,0,0,1,.3-1.12l3.449.922a.58.58,0,0,1-.148,1.139" transform="translate(-2.886 -9.288)"/><path class="e" d="M17.135,46.8a.568.568,0,0,1-.295-.082.581.581,0,0,1-.2-.795l1.824-3.077a.578.578,0,1,1,.992.593l-1.823,3.077a.576.576,0,0,1-.5.283" transform="translate(-6.666 -17.037)"/><path class="e" d="M40.475,46.723A.577.577,0,0,1,40,46.477l-2.05-2.929a.581.581,0,0,1,.14-.807.575.575,0,0,1,.8.141l2.05,2.93a.58.58,0,0,1-.14.807.57.57,0,0,1-.332.106" transform="translate(-15.236 -17.066)"/><path class="e" d="M34.955,13.28a3.323,3.323,0,0,0-2.866-2.7c-.016-.05-.032-.1-.05-.154a2.534,2.534,0,0,0-2.43-1.9h-.1a2.6,2.6,0,0,0-.27-.819,2.092,2.092,0,0,0-1.289-1.037,2.528,2.528,0,0,0-.709-.1,2.717,2.717,0,0,0-1.238.307,2.564,2.564,0,0,0-.321-1.785,2.129,2.129,0,0,0-1.9-1.049,2.816,2.816,0,0,0-.285.014,2.462,2.462,0,0,0-.458-.983,2.718,2.718,0,0,0-2.175-.989,2.683,2.683,0,0,0-.546-.984A3.746,3.746,0,0,0,17.59,0h-.053a3.8,3.8,0,0,0-2.764,1.111,2.69,2.69,0,0,0-.544.975,2.715,2.715,0,0,0-2.178.989,2.469,2.469,0,0,0-.459.983,2.772,2.772,0,0,0-.283-.014,2.132,2.132,0,0,0-1.9,1.049,2.569,2.569,0,0,0-.323,1.776,2.71,2.71,0,0,0-1.223-.3,2.521,2.521,0,0,0-.71.1A2.091,2.091,0,0,0,5.862,7.709a2.6,2.6,0,0,0-.269.819H5.5a2.534,2.534,0,0,0-2.431,1.9c-.019.052-.035.1-.05.154a3.326,3.326,0,0,0-2.866,2.7A3.84,3.84,0,0,0,.481,16.2a2.67,2.67,0,0,0,.829.816,2.921,2.921,0,0,0,.225,2.11,2.414,2.414,0,0,0,1,.949,2.61,2.61,0,0,0-.173.85,2.1,2.1,0,0,0,.6,1.542,2.583,2.583,0,0,0,1.238.707A2.559,2.559,0,0,0,3.6,24.839a2.2,2.2,0,0,0,1.353,2.011A2.433,2.433,0,0,0,4.9,28.234a2.907,2.907,0,0,0,1.3,1.66,2.689,2.689,0,0,0-.022,1.159A3.87,3.87,0,0,0,7.995,33.4a4.193,4.193,0,0,0,2.036.6,2.67,2.67,0,0,0,1.848-.7,3.145,3.145,0,0,0,1.5.422,2.356,2.356,0,0,0,1.749-.77,2.318,2.318,0,0,0,1.391.492,2.1,2.1,0,0,0,1.011-.263,2.5,2.5,0,0,0,.733-.606,2.329,2.329,0,0,0,.987.921,1.915,1.915,0,0,0,.853.2,2.03,2.03,0,0,0,1.359-.55,2.119,2.119,0,0,0,1.485.6,2.671,2.671,0,0,0,1.487-.5,2.438,2.438,0,0,0,1.536.54,3.626,3.626,0,0,0,2.066-.768,3.8,3.8,0,0,0,1.46-2.363,2.765,2.765,0,0,0-.118-1.208,2.865,2.865,0,0,0,1.069-1.663,2.491,2.491,0,0,0-.169-1.457,2.225,2.225,0,0,0,1.115-1.957,2.164,2.164,0,0,0-.4-1.247,2.462,2.462,0,0,0,1.145-.664,2.1,2.1,0,0,0,.605-1.542,2.609,2.609,0,0,0-.173-.85,2.407,2.407,0,0,0,1-.948,2.924,2.924,0,0,0,.223-2.111,2.677,2.677,0,0,0,.829-.817,3.837,3.837,0,0,0,.333-2.917M10.395,5.691A1,1,0,0,1,11.31,5.2a3.347,3.347,0,0,1,1.487.488c-.518-2.081.67-2.449,1.574-2.448a3.859,3.859,0,0,1,.9.11C15,1.223,17.265,1.159,17.536,1.159h.053c.268,0,2.5.064,2.23,2.194a3.867,3.867,0,0,1,.9-.11c.9,0,2.092.367,1.572,2.448A3.358,3.358,0,0,1,23.781,5.2a.993.993,0,0,1,.914.488c.609,1.016-.226,2.345-1.626,3.871a10.024,10.024,0,0,0-11.06-.013C10.615,8.028,9.79,6.7,10.395,5.691M26.316,19.753a8.959,8.959,0,0,1-8.788,7.275c-.232,0-.459-.017-.686-.035a8.995,8.995,0,0,1-8.058-7.04,9.072,9.072,0,0,1-.208-1.916,8.954,8.954,0,1,1,17.908,0,9.058,9.058,0,0,1-.167,1.715m-22.524,1.9c-.885-.918.618-2.333.618-2.333-3.3-.047-1.615-3-1.615-3-2.255-.3-1.531-2.75-1.531-2.75s.434-1.839,1.87-1.839a2.185,2.185,0,0,1,.83.181s0-2.23,1.531-2.23a2.878,2.878,0,0,1,1.358.429s-.606-1.975.616-2.329a1.422,1.422,0,0,1,.39-.055c1.01,0,1.977,1.124,2.979,2.723A10.136,10.136,0,0,0,7.892,21.1c-.139.073-.283.152-.418.219a11.158,11.158,0,0,0-1.716.672,3.4,3.4,0,0,1-.815.116,1.523,1.523,0,0,1-1.151-.446M16.981,32.165a.955.955,0,0,1-.462.124c-.9,0-1.595-1.354-1.595-1.354-.372,1.253-.965,1.632-1.546,1.632a3,3,0,0,1-1.755-.892,1.669,1.669,0,0,1-1.593,1.166A3.061,3.061,0,0,1,8.584,32.4s-2.247-1.262-.85-3.06c0,0-3.246-.924-.931-3.277H6.776c-.242,0-2.024-.04-2.029-1.232,0-.738.532-1.293,1.409-1.751A10.186,10.186,0,0,0,7.88,22.4c.152-.048.312-.094.471-.14a10.11,10.11,0,0,0,9.177,5.923c.019,0,.037,0,.056,0,.076.392.143.771.184,1.123a10,10,0,0,0,.006,1.562,1.67,1.67,0,0,1-.793,1.3m11.541-6.419c2.271,2.167-.6,3.315-.6,3.315,1.4,1.681-.548,3.09-.548,3.09a2.554,2.554,0,0,1-1.4.54,1.548,1.548,0,0,1-1.412-1.048s-.769,1.011-1.611,1.011c-.5,0-1.031-.361-1.437-1.511,0,0-.555,1.458-1.406,1.458a.831.831,0,0,1-.369-.091,1.783,1.783,0,0,1-.824-1.45,7.17,7.17,0,0,0-.011-2.085c.026-.293.062-.6.1-.91a10.131,10.131,0,0,0,7.746-5.877c.192.046.387.091.572.141a9.383,9.383,0,0,0,2.066.8A1.553,1.553,0,0,1,30.3,24.38c.005,1.27-1.775,1.366-1.775,1.366m3.786-9.423s1.687,2.954-1.612,3c0,0,1.5,1.415.615,2.333a1.405,1.405,0,0,1-1.062.422,2.887,2.887,0,0,1-.671-.091,9.483,9.483,0,0,0-1.559-.6c-.262-.127-.535-.27-.815-.42A10.122,10.122,0,0,0,24.25,10.481c1.008-1.613,1.979-2.751,2.994-2.751a1.414,1.414,0,0,1,.39.055c1.224.354.618,2.329.618,2.329a2.872,2.872,0,0,1,1.357-.429c1.531,0,1.529,2.23,1.529,2.23a2.192,2.192,0,0,1,.831-.181c1.437,0,1.869,1.839,1.869,1.839s.726,2.45-1.531,2.75" transform="translate(0 0)"/><path class="e" d="M35.365,22.429a.386.386,0,0,1-.278-.654l1.625-1.7a.383.383,0,0,1,.544-.012.387.387,0,0,1,.011.546l-1.624,1.7a.383.383,0,0,1-.278.119" transform="translate(-14.082 -7.988)"/><path class="e" d="M29.452,27.366l-1.381-1.453,2.543-2.435.053-.055a.387.387,0,0,0,.1-.356,5.653,5.653,0,0,1,.321-2.518.388.388,0,0,0-.095-.413l-.478-.458A.386.386,0,0,0,30.1,19.6a5.594,5.594,0,0,1-2.492.425.38.38,0,0,0-.347.112l-.056.058-2.191,2.5-2.293-2.412-.062-.059a.38.38,0,0,0-.349-.095,5.605,5.605,0,0,1-2.5-.321.381.381,0,0,0-.409.095l-.461.48a.386.386,0,0,0-.079.416,5.466,5.466,0,0,1,.423,2.5.39.39,0,0,0,.118.356l.053.048,2.639,2.33-1.319,1.506c-.619.706-2.555,3.092-1.488,4.117l.238.231a1.016,1.016,0,0,0,.734.28c1.212,0,2.914-1.563,3.306-1.939l1.574-1.507,1.634,1.442c.4.354,2.116,1.8,3.324,1.8a1.035,1.035,0,0,0,.781-.311l.228-.237c1.051-1.1-1.191-3.57-1.651-4.054m-1.762-6.55a6.215,6.215,0,0,0,2.467-.412l.126.121a6.289,6.289,0,0,0-.308,2.5L27.54,25.354,25.549,23.26Zm-4.66,8.855c-1.115,1.069-2.61,2.012-2.975,1.662l-.238-.231c-.363-.35.516-1.889,1.532-3.051l1.32-1.506,1.887,1.665Zm7.518,1.214-.228.237c-.351.364-1.884-.516-3.042-1.537l-1.583-1.4-.58-.512-1.937-1.71-.578-.51-2.531-2.235a6.286,6.286,0,0,0-.409-2.476l.123-.127a6.207,6.207,0,0,0,2.483.308l2.239,2.355.534.562,1.943,2.046.532.559L28.9,27.9c1.062,1.119,2,2.621,1.653,2.986" transform="translate(-7.58 -7.834)"/><path class="e" d="M21.294,22.735a.385.385,0,0,1-.266-.107L19.333,21a.386.386,0,0,1,.533-.558L21.56,22.07a.388.388,0,0,1,.011.546.383.383,0,0,1-.278.119" transform="translate(-7.736 -8.138)"/><path class="e" d="M76.21,10.182q.428.037.441.639a1.431,1.431,0,0,1-.073.344,17.569,17.569,0,0,1-3.552,4.488.687.687,0,0,1-.588.283.649.649,0,0,1-.588-.676A2,2,0,0,1,72,14.855a19.491,19.491,0,0,0,3.442-4.131.767.767,0,0,1,.772-.541m.931,3.947q.428.025.453.639a2.05,2.05,0,0,1-.073.406,23.092,23.092,0,0,1-2.4,4.672q1.053-.1,1.825-.185,1.445-.148,3.307-.455a12.422,12.422,0,0,0-1.286-1.7.789.789,0,0,1-.16-.393.6.6,0,0,1,1.127-.282,19.322,19.322,0,0,1,2.413,3.689,1.4,1.4,0,0,1,.135.492q-.062.443-.625.492a.576.576,0,0,1-.5-.344q-.22-.468-.465-.885-2.2.381-3.92.578-1.433.148-3.222.3c-.131,0-.237,0-.318.013q-.625-.037-.686-.541a.6.6,0,0,1,.49-.639c.155-.008.31-.02.465-.037a26.364,26.364,0,0,0,2.719-5.275.711.711,0,0,1,.723-.541m1.776-4a.684.684,0,0,1,.539.258,12.219,12.219,0,0,0,1.678,2.557,9.535,9.535,0,0,0,1.838,1.623.638.638,0,0,1,.306.59.588.588,0,0,1-.637.59.609.609,0,0,1-.33-.11,10.319,10.319,0,0,1-2-1.734,17.266,17.266,0,0,1-1.788-2.743,1,1,0,0,1-.16-.443q0-.59.551-.59" transform="translate(-28.925 -4.056)"/><path class="e" d="M102.524,9.874a.566.566,0,0,1,.624.492,6.227,6.227,0,0,1-.735,1.475h2.561a.541.541,0,0,1,0,1.082h-2.768a10.345,10.345,0,0,0,1.409,1.832,8.252,8.252,0,0,0,1.8,1.414.529.529,0,0,1,.245.492q-.062.542-.539.542a.7.7,0,0,1-.318-.1q-.393-.246-.76-.5a1.374,1.374,0,0,1,.1.554v2.939h.931q.465.025.49.541a.464.464,0,0,1-.49.492H94.537a.463.463,0,0,1-.49-.492q.024-.516.49-.541h.931V17.154a1.42,1.42,0,0,1,.11-.6q-.392.283-.808.554a.616.616,0,0,1-.392.148.593.593,0,0,1-.478-.443.575.575,0,0,1,.233-.492,14.248,14.248,0,0,0,1.213-.934,7.737,7.737,0,0,0,1.188-1.2,9.068,9.068,0,0,0,.858-1.255H94.635a.541.541,0,0,1,0-1.082h6.541q.49-.823.858-1.574a.5.5,0,0,1,.49-.393m-6.3,6.148a1.243,1.243,0,0,1,.416-.061h6.321a1.347,1.347,0,0,1,.367.049q-.22-.209-.416-.418a13.719,13.719,0,0,1-1.715-2.386.94.94,0,0,1-.134-.283H98.64a.491.491,0,0,1-.036.1,9.891,9.891,0,0,1-1.678,2.3,9.518,9.518,0,0,1-.7.7m.808-6.2a.765.765,0,0,1,.478.185,3.892,3.892,0,0,1,.306.443,3.105,3.105,0,0,1,.245.406.606.606,0,0,1,.147.381.536.536,0,0,1-.539.492.53.53,0,0,1-.441-.184c-.066-.106-.147-.237-.245-.393-.073-.131-.143-.246-.208-.344a.989.989,0,0,1-.233-.542.6.6,0,0,1,.49-.443m-.49,10.268H98V16.945H96.877c-.221,0-.331.119-.331.357Zm2.486,0h1.519V16.945H99.032Zm2.5,0h1.531V17.3a.315.315,0,0,0-.355-.357h-1.176Z" transform="translate(-37.803 -3.933)"/><path class="e" d="M117.906,18.762q.392.025.4.541a.48.48,0,0,1-.036.136,7.433,7.433,0,0,1-1.237,1.881.561.561,0,0,1-.441.2.526.526,0,0,1-.49-.541,1.059,1.059,0,0,1,.1-.308,7.08,7.08,0,0,0,1.078-1.414.62.62,0,0,1,.625-.492m-.135-8.362h2.29a1,1,0,0,1,1.127,1.132v5.8a1,1,0,0,1-1.127,1.132h-2.29a1,1,0,0,1-1.127-1.132v-5.8a1,1,0,0,1,1.127-1.132m-.1,2.349h2.5V11.666q0-.233-.245-.233h-2.021a.206.206,0,0,0-.233.233Zm0,2.373h2.5V13.7h-2.5Zm2.254,2.3q.245,0,.245-.234V16.056h-2.5v1.131a.206.206,0,0,0,.233.234Zm0,1.34a.593.593,0,0,1,.49.233,8.589,8.589,0,0,1,.833,1.488,1.146,1.146,0,0,1,.1.394q-.062.381-.539.443a.471.471,0,0,1-.441-.3,6.17,6.17,0,0,0-.845-1.39.986.986,0,0,1-.1-.332.531.531,0,0,1,.5-.541m7.594-6.148q.453.025.49.541a.482.482,0,0,1-.49.492h-1.078v6.64q0,1.082-1.629,1.082-.331,0-.87-.049a.449.449,0,0,1-.343-.443.576.576,0,0,1,.575-.64h.086a6.468,6.468,0,0,0,.759.049q.331,0,.331-.344V15.183a11.468,11.468,0,0,1-.833,1.439,12.939,12.939,0,0,1-2.193,2.373.753.753,0,0,1-.539.209.666.666,0,0,1-.49-.541.865.865,0,0,1,.2-.492,10.985,10.985,0,0,0,2.23-2.214A9.99,9.99,0,0,0,125,13.646h-2.964a.478.478,0,0,1-.5-.492.491.491,0,0,1,.5-.541h3.32V10.4a.5.5,0,0,1,.539-.492.5.5,0,0,1,.551.492v2.214Z" transform="translate(-46.742 -3.966)"/><path class="e" d="M140.87,10.81h8.048a1.036,1.036,0,0,1,1.176,1.168v8.374a1.036,1.036,0,0,1-1.176,1.168H140.87a1.036,1.036,0,0,1-1.176-1.168V11.978a1.036,1.036,0,0,1,1.176-1.168m7.754,9.629a.3.3,0,0,0,.343-.332v-7.87a.3.3,0,0,0-.343-.345h-7.447a.31.31,0,0,0-.355.345v7.87q0,.332.355.332Zm-.5-6.738c.309.016.477.2.5.541a.478.478,0,0,1-.5.492h-1.115v4.095q0,.984-1.482.984-.393,0-1.029-.049a.43.43,0,0,1-.281-.443c.016-.377.2-.574.539-.59h.086c.294.025.554.041.784.049a.315.315,0,0,0,.355-.357V14.733H141.85a.463.463,0,0,1-.49-.492q.024-.516.49-.541h4.128v-.972a.464.464,0,0,1,.49-.492.5.5,0,0,1,.539.492V13.7Zm-5.145,1.623a.725.725,0,0,1,.49.209,7.93,7.93,0,0,1,.625.873,5.747,5.747,0,0,1,.5.8.593.593,0,0,1,.16.393.526.526,0,0,1-.539.492.5.5,0,0,1-.441-.209q-.234-.332-.539-.811-.27-.418-.49-.763a.9.9,0,0,1-.257-.541.646.646,0,0,1,.49-.443" transform="translate(-56.239 -4.327)"/><path class="e" d="M161.658,13.207a.728.728,0,0,1,.49.209q.416.246.833.554a4.163,4.163,0,0,1,.649.529.833.833,0,0,1,.134.43.527.527,0,0,1-.539.492.66.66,0,0,1-.49-.185q-.294-.221-.7-.516-.367-.258-.661-.48a.9.9,0,0,1-.257-.541.67.67,0,0,1,.539-.492m2.316,3.738a.579.579,0,0,1,.588.541.792.792,0,0,1-.16.443,16.912,16.912,0,0,1-2,3.246.745.745,0,0,1-.392.16q-.539-.049-.588-.492a.855.855,0,0,1,.232-.59,16.131,16.131,0,0,0,1.078-1.6q.453-.786.747-1.4a.638.638,0,0,1,.49-.308m-1.421-6.886a.792.792,0,0,1,.49.209,6.465,6.465,0,0,1,.76.5,4.145,4.145,0,0,1,.6.467.8.8,0,0,1,.16.443.537.537,0,0,1-.539.492.634.634,0,0,1-.49-.185q-.282-.209-.674-.467l-.612-.431a.94.94,0,0,1-.233-.541.648.648,0,0,1,.539-.492m8.918,1.783q.464.025.49.541a.464.464,0,0,1-.49.492h-2.646v2.214h3.185q.465.025.49.541a.464.464,0,0,1-.49.492h-3.393l-2.144,3.566q1.935-.159,3.92-.356l.159-.025a9.318,9.318,0,0,0-.955-1.328.723.723,0,0,1-.135-.332.578.578,0,0,1,.539-.59.615.615,0,0,1,.539.3,16.214,16.214,0,0,1,1.911,3.1,1.058,1.058,0,0,1,.147.443q-.073.443-.637.492a.471.471,0,0,1-.441-.3q-.209-.431-.416-.811-2.365.369-5.243.664-.576.049-.759.049a.74.74,0,0,1-.7-.639.636.636,0,0,1,.6-.542.865.865,0,0,1,.135-.012l2.2-3.677h-2.78a.463.463,0,0,1-.49-.492q.023-.516.49-.541h3.185V12.875h-2.413a.464.464,0,0,1-.49-.492q.024-.516.49-.541h2.413V10.367a.539.539,0,1,1,1.078,0v1.475Z" transform="translate(-64.864 -3.933)"/><path class="e" d="M189.19,9.99q.551.013.588.492v1.476a2.112,2.112,0,0,1-.012.221,15.761,15.761,0,0,0,.82,2.877,12.214,12.214,0,0,0,1.519,2.68,16.1,16.1,0,0,0,2.475,2.472.653.653,0,0,1,.343.492.675.675,0,0,1-.588.7,1.049,1.049,0,0,1-.539-.209,16.629,16.629,0,0,1-2.67-2.865,10.883,10.883,0,0,1-1.433-2.705,8.822,8.822,0,0,1-.306-.873,11.684,11.684,0,0,1-.71,1.943,12.02,12.02,0,0,1-4.055,4.463.784.784,0,0,1-.539.3.664.664,0,0,1-.625-.542.818.818,0,0,1,.184-.541,10.817,10.817,0,0,0,3.711-3.553,9.449,9.449,0,0,0,1.25-4.857V10.482q.023-.479.588-.492" transform="translate(-73.857 -3.999)"/><path class="e" d="M220.316,5.3a.813.813,0,1,1,0,1.626h-2.511V8.468h1.154a1.416,1.416,0,0,1,1.6,1.605v4.389a1.425,1.425,0,0,1-1.6,1.626h-1.154V17.8h2.045a.813.813,0,0,1,0,1.626h-2.045v2.54a.781.781,0,0,1-.81.813q-.85-.061-.891-.813v-2.54h-2.976a.813.813,0,0,1,0-1.626H216.1V16.088h-1.275a1.434,1.434,0,0,1-1.62-1.626V10.073a1.425,1.425,0,0,1,1.62-1.605H216.1V6.923h-2.753a.766.766,0,0,1-.809-.813.766.766,0,0,1,.809-.813H216.1V4.321a.766.766,0,0,1,.81-.813q.85.04.89.813V5.3Zm-5.487,6.178h4.13V10.5q0-.507-.486-.508H215.3q-.466,0-.466.508Zm3.644,3.089a.43.43,0,0,0,.486-.488V13.019h-4.13v1.057q0,.488.466.488Zm4.939-4.39H229a1.282,1.282,0,0,1,1.458,1.443v1.565A1.291,1.291,0,0,1,229,14.645h-.891v.976h1.924q.809,0,.81.732,0,.712-.81.711H228.11v1.707h2.733a.757.757,0,0,1,.749.813.691.691,0,0,1-.749.732H228.11v1.646a.806.806,0,0,1-.83.813q-.85-.061-.87-.813V20.316h-5.042a.7.7,0,0,1-.728-.732.765.765,0,0,1,.728-.813h.729V17.064a1.291,1.291,0,0,1,1.477-1.443h2.835v-.976h-3a1.291,1.291,0,0,1-1.458-1.463V11.617a1.282,1.282,0,0,1,1.458-1.443m2.105-6.828a.829.829,0,0,1,.891.711,3.051,3.051,0,0,1-.162.732h2.429a1.148,1.148,0,0,1,1.275,1.321V7.817h.891a.743.743,0,0,1,.749.813.7.7,0,0,1-.749.731h-9.13a.681.681,0,0,1-.729-.731q.02-.773.729-.813h1.761q.3-.793.547-1.544h-.952q-.971,0-.971-.752,0-.731.971-.732h1.437q.142-.447.263-.894a.77.77,0,0,1,.749-.549m3,9.837a.359.359,0,0,0,.4-.407v-.732q0-.427-.4-.427h-4.636q-.385,0-.385.427v.732q0,.407.385.407Zm-2.105,5.588V17.064H224.3a.448.448,0,0,0-.506.508v1.2ZM225.235,7.817h3.1V6.76q0-.488-.465-.488h-2.086q-.243.67-.547,1.544" transform="translate(-85.476 -1.339)"/><path class="e" d="M254.148,4.973h13.544a1.578,1.578,0,0,1,1.781,1.788V20.906a1.578,1.578,0,0,1-1.781,1.788H254.148a1.578,1.578,0,0,1-1.781-1.788V6.761a1.578,1.578,0,0,1,1.781-1.788m13.037,15.994q.587,0,.587-.549V7.229q0-.549-.587-.549H254.655a.493.493,0,0,0-.567.549v13.19a.493.493,0,0,0,.567.549ZM265.83,8.387a.767.767,0,0,1,.81.813.767.767,0,0,1-.81.813h-4.292v2.5H265.1a.75.75,0,0,1,.729.813.7.7,0,0,1-.729.731h-3.563v3.354h4.454a.753.753,0,0,1,.81.813.782.782,0,0,1-.81.813H255.849a.781.781,0,0,1-.81-.813.753.753,0,0,1,.81-.813h3.988V14.057H256.6a.7.7,0,0,1-.749-.731.756.756,0,0,1,.749-.813h3.239v-2.5h-3.746a.766.766,0,0,1-.809-.813.766.766,0,0,1,.809-.813Zm-1.781,5.934a1.034,1.034,0,0,1,.708.325,3.6,3.6,0,0,1,.466.59,4.58,4.58,0,0,1,.344.528,1.43,1.43,0,0,1,.182.67.733.733,0,0,1-.729.65.8.8,0,0,1-.648-.264q-.143-.223-.324-.528c-.135-.2-.25-.379-.344-.528a1.308,1.308,0,0,1-.385-.813.867.867,0,0,1,.729-.63" transform="translate(-101.599 -1.991)"/><path class="e" d="M296.759,5.547a.773.773,0,0,1,.81.752q.384-.609.728-1.219a1,1,0,0,1,.83-.488.847.847,0,0,1,.81.65,1.884,1.884,0,0,1-.162.63,22.251,22.251,0,0,1-2.105,3.17h.971a.768.768,0,0,1,.79.833.773.773,0,0,1-.79.813h-2.348q-.466.508-.971.976-.365.345-.709.65H296.6a1.148,1.148,0,0,1,1.316,1.28.728.728,0,0,1-.263.467,18.48,18.48,0,0,1-2.206,2.175l-.122.122V16.5q1.457-.244,2.915-.528a.883.883,0,0,1,.891.894q-.122.712-1.134.732-1.3.264-2.672.488v2.5q0,1.89-1.964,1.89-.446,0-1.519-.1a.989.989,0,0,1-.648-.793.909.909,0,0,1,.951-1,.613.613,0,0,1,.142.02q.648.081.83.082.424,0,.424-.325V18.331q-1.781.2-3.745.3a.951.951,0,0,1-.891-.874.851.851,0,0,1,.811-.752q1.922-.081,3.825-.284V15.649q.041-.631.891-.651h.04a13.42,13.42,0,0,0,1.235-1.036.306.306,0,0,0,.081-.183c0-.068-.027-.1-.081-.1h-2.834a18.8,18.8,0,0,1-2.814,1.707,2.325,2.325,0,0,1-.729.183.919.919,0,0,1-.809-.813.776.776,0,0,1,.648-.731q.566-.326,1.114-.651a.818.818,0,0,1-.061-.325q0-.731.648-.732h1.053a21.277,21.277,0,0,0,2.025-1.626h-4.393a.823.823,0,0,1,0-1.646h3.725V7.194H290.6a.78.78,0,0,1-.81-.813.775.775,0,0,1,.81-.834h2.673V4.43a.766.766,0,0,1,.81-.813q.85.041.891.813V5.547Zm-1.235,3.5a19.139,19.139,0,0,0,1.5-1.89c-.082.013-.169.027-.263.04h-1.781v1.85Zm7.085-5.426a.858.858,0,0,1,.871.894,2.2,2.2,0,0,1-.062.407q-.445,1.464-.89,2.662H307.2a.767.767,0,0,1,.81.813q-.04.853-.81.894h-.567a18.073,18.073,0,0,1-.891,4.776,16.194,16.194,0,0,1-1.518,3.11,12.133,12.133,0,0,0,3.158,3.414,1.077,1.077,0,0,1,.729.813q-.061.853-.81.894a3.358,3.358,0,0,1-.649-.142,14,14,0,0,1-2.328-2.012,9.877,9.877,0,0,1-1.173-1.5.775.775,0,0,1-.081.1,16.7,16.7,0,0,1-4.434,3.637,1.683,1.683,0,0,1-.648.183.953.953,0,0,1-.809-.732,1.038,1.038,0,0,1,.809-1.057,14.526,14.526,0,0,0,4.292-3.76,21.225,21.225,0,0,1-1.195-3.435q-.222-.915-.4-1.768a7.358,7.358,0,0,1-.607.976,1.017,1.017,0,0,1-.891.65.831.831,0,0,1-.809-.813,1.324,1.324,0,0,1,.263-.651,17.566,17.566,0,0,0,1.58-3.15q.688-1.646,1.559-4.552a.849.849,0,0,1,.83-.651m-.648,5.67a2.365,2.365,0,0,1,.06.264,31.459,31.459,0,0,0,.729,3.882q.3,1.017.608,1.869a13.181,13.181,0,0,0,1.033-2.519,15.418,15.418,0,0,0,.627-3.5Z" transform="translate(-116.153 -1.448)"/><path class="e" d="M336.9,3.482a.888.888,0,0,1,.971.894v.976h7.45q.769.04.81.894a.782.782,0,0,1-.81.813h-9.656l-2.592,2.175q4.939-.04,7.734-.244l-.344-.3a1.414,1.414,0,0,1-.405-.813.942.942,0,0,1,.789-.731,1.084,1.084,0,0,1,.729.3,19.832,19.832,0,0,1,1.761,1.362,13.369,13.369,0,0,1,1.417,1.24,1.212,1.212,0,0,1,.223.65.9.9,0,0,1-.891.834.923.923,0,0,1-.729-.326q-.4-.366-.91-.813a89,89,0,0,1-11.863.549q-1.215,0-1.235-.894.02-.793,1.133-.813h.263l2.591-2.175H328.7a.8.8,0,0,1-.81-.813q.061-.853.81-.894h7.309V4.376a.837.837,0,0,1,.891-.894m-4.717,8.109h9.657a1.516,1.516,0,0,1,1.7,1.728v7.214a1.874,1.874,0,0,1-2.106,2.134q-.789,0-1.721-.082a1.065,1.065,0,0,1-.648-.894.887.887,0,0,1,.89-.813h.142a10.728,10.728,0,0,0,1.175.082q.566,0,.567-.59v-1.2h-9.657v2.845q0,.812-.891.813a.717.717,0,0,1-.809-.813v-8.7a1.516,1.516,0,0,1,1.7-1.728m0,3.11h9.657v-.894a.5.5,0,0,0-.567-.569h-8.523a.5.5,0,0,0-.567.569Zm0,2.926h9.657v-1.4h-9.657Z" transform="translate(-132.003 -1.394)"/><path class="e" d="M367.9,18.25q.648.04.668.894a.805.805,0,0,1-.06.224,12.286,12.286,0,0,1-2.045,3.109.923.923,0,0,1-.729.326.868.868,0,0,1-.81-.894,1.76,1.76,0,0,1,.162-.508,11.7,11.7,0,0,0,1.781-2.338,1.025,1.025,0,0,1,1.032-.813m-.222-13.82h3.785a1.65,1.65,0,0,1,1.863,1.87v9.593a1.649,1.649,0,0,1-1.863,1.869h-3.785a1.649,1.649,0,0,1-1.863-1.869V6.3a1.65,1.65,0,0,1,1.863-1.87m-.162,3.882h4.13V6.523q0-.386-.4-.386H367.9a.341.341,0,0,0-.385.386Zm0,3.922h4.13V9.876h-4.13Zm3.725,3.8q.4,0,.4-.386V13.779h-4.13v1.869a.34.34,0,0,0,.385.386Zm0,2.215a.978.978,0,0,1,.809.386,14.1,14.1,0,0,1,1.376,2.459,1.892,1.892,0,0,1,.163.651q-.1.629-.891.731a.778.778,0,0,1-.729-.488,10.165,10.165,0,0,0-1.4-2.3,1.645,1.645,0,0,1-.162-.549.877.877,0,0,1,.83-.894M383.79,8.088q.748.041.809.894a.8.8,0,0,1-.809.813h-1.782V20.77q0,1.788-2.692,1.788-.547,0-1.437-.082a.741.741,0,0,1-.567-.731.953.953,0,0,1,.951-1.057h.142a10.7,10.7,0,0,0,1.255.082q.548,0,.547-.569V12.335a18.893,18.893,0,0,1-1.377,2.378,21.359,21.359,0,0,1-3.624,3.923,1.245,1.245,0,0,1-.89.345,1.1,1.1,0,0,1-.81-.894,1.429,1.429,0,0,1,.324-.813,18.166,18.166,0,0,0,3.684-3.658A16.506,16.506,0,0,0,379.62,9.8h-4.9a.79.79,0,0,1-.83-.813.813.813,0,0,1,.83-.894h5.487V4.43a.818.818,0,0,1,.89-.813.828.828,0,0,1,.911.813V8.088Z" transform="translate(-146.912 -1.448)"/><path class="e" d="M407.185,5.108h13.3a1.712,1.712,0,0,1,1.943,1.931v13.84a1.712,1.712,0,0,1-1.943,1.93h-13.3a1.712,1.712,0,0,1-1.943-1.93V7.039a1.712,1.712,0,0,1,1.943-1.931M420,21.021a.493.493,0,0,0,.566-.549V7.466A.5.5,0,0,0,420,6.9H407.691a.511.511,0,0,0-.587.57V20.472q0,.549.587.549Zm-.83-11.137q.769.04.83.894a.791.791,0,0,1-.83.813h-1.842v6.767q0,1.626-2.45,1.626-.648,0-1.7-.082a.71.71,0,0,1-.465-.731q.039-.935.891-.976h.142q.728.061,1.3.081a.52.52,0,0,0,.587-.589v-6.1H408.8a.767.767,0,0,1-.81-.813q.04-.854.81-.894h6.822V8.279a.766.766,0,0,1,.81-.813.819.819,0,0,1,.891.813V9.884Zm-8.5,2.683a1.2,1.2,0,0,1,.81.345,12.921,12.921,0,0,1,1.033,1.443,9.352,9.352,0,0,1,.83,1.321.982.982,0,0,1,.263.65.869.869,0,0,1-.891.813.832.832,0,0,1-.729-.345q-.384-.549-.891-1.342-.445-.691-.81-1.26a1.487,1.487,0,0,1-.425-.894,1.066,1.066,0,0,1,.809-.732" transform="translate(-163.144 -2.045)"/><path class="e" d="M72.386,46.035a.819.819,0,0,1-.051-.3.8.8,0,0,1,.044-.271.189.189,0,0,1,.2-.119h.57q.366,0,.758,0l.749-.008c.238,0,.423-.009.556-.02a.221.221,0,0,1,.223.124.69.69,0,0,1,.055.282.8.8,0,0,1-.047.283.212.212,0,0,1-.223.124c-.105,0-.225,0-.357,0s-.289,0-.468,0v2.452q0,.3,0,.566c0,.175,0,.324,0,.446v.254c0,.091-.057.16-.174.208a1,1,0,0,1-.38.071.842.842,0,0,1-.313-.055c-.093-.037-.14-.094-.14-.167v-.184c0-.074,0-.161,0-.263s0-.212,0-.335v-.844c0-.308,0-.613-.009-.916,0-.254,0-.483,0-.684s0-.38,0-.534l-.808.024a.192.192,0,0,1-.195-.131" transform="translate(-29.121 -18.138)"/><path class="e" d="M86.835,45.326a.179.179,0,0,1,.139.171v3.942c0,.2,0,.326.008.39a.165.165,0,0,1-.048.116.392.392,0,0,1-.127.088.794.794,0,0,1-.182.055,1.009,1.009,0,0,1-.2.02.79.79,0,0,1-.313-.06c-.093-.04-.139-.1-.139-.171,0-.053,0-.148,0-.282s0-.3,0-.482,0-.378,0-.577,0-.418,0-.657l-.658.016q-.246.008-.416.008t-.4.016v1.226q0,.255,0,.434c0,.119.007.2.012.251a.165.165,0,0,1-.048.116.386.386,0,0,1-.127.088.794.794,0,0,1-.182.055,1.009,1.009,0,0,1-.2.02.79.79,0,0,1-.313-.06c-.093-.04-.139-.1-.139-.171v-2.1q0-.39,0-.772c0-.255,0-.486,0-.693v-.8c0-.079.057-.139.17-.179a1.142,1.142,0,0,1,.376-.059.908.908,0,0,1,.321.052.179.179,0,0,1,.139.171v.327c0,.164,0,.354,0,.569s0,.458,0,.729h.388l.563-.016q.246-.007.523-.023c0-.191,0-.372,0-.542s0-.324,0-.462v-.566c0-.079.057-.139.17-.179a1.142,1.142,0,0,1,.376-.059.912.912,0,0,1,.322.052" transform="translate(-33.616 -18.122)"/><path class="e" d="M95.668,45.333a1.073,1.073,0,0,1,.364-.059c.074,0,.139,0,.195.008a.243.243,0,0,1,.131.047c.074,0,.151,0,.23,0s.155,0,.229,0c.228,0,.453,0,.679,0s.424-.01.6-.02a.233.233,0,0,1,.143.028.369.369,0,0,1,.108.091.409.409,0,0,1,.067.132.524.524,0,0,1,.024.155.492.492,0,0,1-.083.282.282.282,0,0,1-.25.124c-.047,0-.1,0-.15,0s-.106,0-.159,0q-.341.008-.639,0c-.2,0-.414,0-.646.011v.383c0,.1,0,.194,0,.279s0,.193,0,.326c.053,0,.1,0,.155,0s.1,0,.154,0c.185,0,.371,0,.556,0s.362-.009.531-.02a.241.241,0,0,1,.143.028.358.358,0,0,1,.106.092.4.4,0,0,1,.068.131.523.523,0,0,1,.023.155.5.5,0,0,1-.083.282.281.281,0,0,1-.25.124q-.38.008-.694.012t-.709.012v.717c0,.212,0,.411.008.6.063,0,.126,0,.186,0s.128,0,.2,0c.228,0,.453,0,.679,0s.421-.01.59-.02a.25.25,0,0,1,.254.119.532.532,0,0,1,.087.3.49.49,0,0,1-.079.275.278.278,0,0,1-.253.124H97.9l-.825.016q-.427.008-.793.024a.5.5,0,0,1-.154.04c-.056.005-.11.008-.163.008a.83.83,0,0,1-.318-.056.186.186,0,0,1-.134-.176v-2.1q0-.39,0-.772t0-.693v-.8c0-.08.055-.14.167-.179" transform="translate(-38.447 -18.122)"/><path class="e" d="M114.88,45.333a1.119,1.119,0,0,1,.369-.059.941.941,0,0,1,.325.052c.095.035.143.091.143.171v.311q0,.183,0,.446t0,.565q.151-.191.325-.394c.116-.135.228-.268.333-.4s.2-.252.294-.366l.222-.282c.038-.049.106-.058.207-.028a1.121,1.121,0,0,1,.3.139.96.96,0,0,1,.238.215c.06.079.072.146.035.2l-.492.6-.944,1.154q.167.175.365.383l.42.422.452.438q.23.224.444.438c.048.048.044.115-.011.2a.975.975,0,0,1-.226.243,1.087,1.087,0,0,1-.3.167c-.1.037-.176.032-.218-.016-.265-.287-.516-.554-.754-.8l-.69-.712V48.9q0,.231,0,.418c0,.125.005.231.008.318s0,.15,0,.187c-.011.08-.074.146-.191.2a.87.87,0,0,1-.364.08.787.787,0,0,1-.318-.06.187.187,0,0,1-.134-.172v-2.1q0-.39,0-.772t0-.693v-.8c0-.08.057-.14.17-.179" transform="translate(-46.18 -18.122)"/><path class="e" d="M125.974,46.708a2.418,2.418,0,0,1,.5-.784,2.293,2.293,0,0,1,.753-.525,2.442,2.442,0,0,1,1.895,0,2.293,2.293,0,0,1,.753.525,2.408,2.408,0,0,1,.5.784,2.59,2.59,0,0,1,.179.967,2.733,2.733,0,0,1-.166.967,2.253,2.253,0,0,1-.473.765,2.1,2.1,0,0,1-.741.5,2.543,2.543,0,0,1-.977.179,2.586,2.586,0,0,1-.986-.179,2.191,2.191,0,0,1-.754-.5,2.252,2.252,0,0,1-.484-.765,2.669,2.669,0,0,1-.17-.967,2.589,2.589,0,0,1,.179-.967m3.454.267a1.8,1.8,0,0,0-.3-.537,1.325,1.325,0,0,0-.436-.35,1.157,1.157,0,0,0-.52-.124,1.141,1.141,0,0,0-.523.124,1.356,1.356,0,0,0-.436.35,1.731,1.731,0,0,0-.3.537,2.02,2.02,0,0,0-.111.685,2.12,2.12,0,0,0,.108.7,1.526,1.526,0,0,0,.293.518,1.249,1.249,0,0,0,.44.322,1.362,1.362,0,0,0,.554.112,1.291,1.291,0,0,0,.541-.112,1.2,1.2,0,0,0,.424-.322,1.5,1.5,0,0,0,.278-.518,2.3,2.3,0,0,0,.1-.7,2.035,2.035,0,0,0-.111-.685" transform="translate(-50.643 -18.095)"/><path class="e" d="M139.841,45.331a1.124,1.124,0,0,1,.369-.059c.053,0,.1,0,.139,0a.428.428,0,0,1,.123.028c.09-.011.189-.02.3-.028a2.271,2.271,0,0,1,.3,0,2.424,2.424,0,0,1,.679.119,1.637,1.637,0,0,1,.526.287,1.233,1.233,0,0,1,.342.442,1.382,1.382,0,0,1,.118.578,1.287,1.287,0,0,1-.071.417,1.441,1.441,0,0,1-.21.4,1.47,1.47,0,0,1-.354.335,1.636,1.636,0,0,1-.5.227l1.245,1.258c.048.048.044.115-.011.2a1.078,1.078,0,0,1-.517.41c-.1.037-.177.032-.226-.016q-.444-.47-.78-.836t-.639-.669v.486c0,.149,0,.285,0,.41s0,.231.008.318,0,.15,0,.187q-.015.12-.191.2a.87.87,0,0,1-.364.08.782.782,0,0,1-.317-.06.187.187,0,0,1-.134-.172v-2.1q0-.39,0-.772c0-.255,0-.486,0-.693v-.8c0-.08.057-.14.17-.179m.838,1.214c0,.133,0,.268,0,.406s0,.3,0,.478a.7.7,0,0,0,.1.008h.111c.026,0,.059,0,.1,0s.08,0,.123,0a.6.6,0,0,0,.452-.219.809.809,0,0,0,.167-.53.613.613,0,0,0-.174-.482.787.787,0,0,0-.5-.172,1.727,1.727,0,0,0-.174-.008,1.341,1.341,0,0,0-.2.016Z" transform="translate(-56.229 -18.12)"/><path class="e" d="M151.174,45.333a1.073,1.073,0,0,1,.364-.059c.074,0,.139,0,.195.008a.244.244,0,0,1,.131.047c.074,0,.151,0,.23,0s.155,0,.229,0c.228,0,.453,0,.679,0s.424-.01.6-.02a.233.233,0,0,1,.143.028.369.369,0,0,1,.108.091.409.409,0,0,1,.067.132.524.524,0,0,1,.024.155.492.492,0,0,1-.083.282.282.282,0,0,1-.25.124c-.047,0-.1,0-.15,0s-.106,0-.159,0q-.341.008-.639,0c-.2,0-.414,0-.646.011v.383c0,.1,0,.194,0,.279s0,.193,0,.326c.053,0,.1,0,.155,0s.1,0,.154,0c.185,0,.371,0,.556,0s.362-.009.531-.02a.241.241,0,0,1,.143.028.357.357,0,0,1,.106.092.4.4,0,0,1,.068.131.523.523,0,0,1,.023.155.5.5,0,0,1-.083.282.281.281,0,0,1-.25.124q-.38.008-.694.012t-.709.012v.717c0,.212,0,.411.008.6.063,0,.126,0,.186,0s.128,0,.2,0c.228,0,.453,0,.679,0s.421-.01.59-.02a.25.25,0,0,1,.254.119.532.532,0,0,1,.087.3.5.5,0,0,1-.079.275.278.278,0,0,1-.253.124H153.4l-.825.016q-.427.008-.793.024a.5.5,0,0,1-.154.04c-.056.005-.11.008-.163.008a.83.83,0,0,1-.318-.056.186.186,0,0,1-.134-.176v-2.1q0-.39,0-.772t0-.693v-.8c0-.08.055-.14.167-.179" transform="translate(-60.793 -18.122)"/><path class="e" d="M163.074,48.662l-.421,1.226a.216.216,0,0,1-.135.128.681.681,0,0,1-.246.04.818.818,0,0,1-.222-.032.745.745,0,0,1-.2-.088.406.406,0,0,1-.131-.127.2.2,0,0,1-.02-.16q.213-.581.424-1.162l.409-1.131q.2-.55.368-1.051t.314-.924a.286.286,0,0,1,.183-.147.89.89,0,0,1,.308-.052.962.962,0,0,1,.33.055.273.273,0,0,1,.187.16l.167.51.285.86q.151.453.313.927t.329.955q.167.482.333.944c.017.064-.018.126-.1.187a1.1,1.1,0,0,1-.293.148,1.119,1.119,0,0,1-.325.059c-.106,0-.174-.023-.207-.076l-.4-1.25Zm.262-.789h.738l-.357-1.082Z" transform="translate(-65.095 -18.085)"/><path class="e" d="M182.585,45.333a1.073,1.073,0,0,1,.364-.059c.074,0,.139,0,.195.008a.244.244,0,0,1,.131.047c.074,0,.151,0,.23,0s.155,0,.229,0c.228,0,.453,0,.679,0s.424-.01.6-.02a.233.233,0,0,1,.143.028.369.369,0,0,1,.108.091.409.409,0,0,1,.067.132.524.524,0,0,1,.024.155.492.492,0,0,1-.083.282.282.282,0,0,1-.25.124c-.047,0-.1,0-.15,0s-.106,0-.159,0q-.341.008-.639,0c-.2,0-.414,0-.646.011v.383c0,.1,0,.194,0,.279s0,.193,0,.326c.053,0,.1,0,.155,0s.1,0,.154,0c.185,0,.371,0,.556,0s.362-.009.531-.02a.241.241,0,0,1,.143.028.357.357,0,0,1,.106.092.4.4,0,0,1,.068.131.523.523,0,0,1,.023.155.5.5,0,0,1-.083.282.281.281,0,0,1-.25.124q-.38.008-.694.012c-.209,0-.444.007-.709.012v.717c0,.212,0,.411.008.6.063,0,.126,0,.186,0s.128,0,.2,0c.228,0,.453,0,.679,0s.421-.01.59-.02a.25.25,0,0,1,.254.119.532.532,0,0,1,.087.3.49.49,0,0,1-.079.275.278.278,0,0,1-.253.124h-.278l-.825.016q-.427.008-.793.024a.5.5,0,0,1-.154.04c-.056.005-.11.008-.163.008a.83.83,0,0,1-.318-.056.186.186,0,0,1-.134-.176v-2.1q0-.39,0-.772t0-.693v-.8c0-.08.055-.14.167-.179" transform="translate(-73.439 -18.122)"/><path class="e" d="M193.567,45.338a1.044,1.044,0,0,1,.369-.064.818.818,0,0,1,.255.032c.063-.011.133-.019.21-.024s.171-.008.282-.008a2.752,2.752,0,0,1,1.007.179,2.353,2.353,0,0,1,.79.5,2.232,2.232,0,0,1,.511.76,2.474,2.474,0,0,1,.182.96,2.63,2.63,0,0,1-.174.972,2.242,2.242,0,0,1-.492.768,2.194,2.194,0,0,1-.765.5,2.65,2.65,0,0,1-1,.179,2.3,2.3,0,0,1-.25-.016c-.093-.011-.178-.024-.258-.04a.94.94,0,0,1-.388.072.805.805,0,0,1-.313-.056.185.185,0,0,1-.131-.176v-2.1q0-.39,0-.772c0-.255,0-.486,0-.693v-.8c0-.074.057-.133.17-.175m.845,3.973a.79.79,0,0,0,.16.016h.166a1.417,1.417,0,0,0,.562-.111,1.248,1.248,0,0,0,.453-.327,1.583,1.583,0,0,0,.3-.525,2.1,2.1,0,0,0,.111-.709,1.894,1.894,0,0,0-.113-.673,1.541,1.541,0,0,0-.318-.509,1.433,1.433,0,0,0-.471-.326,1.454,1.454,0,0,0-.579-.116h-.143a.8.8,0,0,0-.127.008Z" transform="translate(-77.859 -18.122)"/><path class="e" d="M208.307,45.333a1.143,1.143,0,0,1,.377-.059.814.814,0,0,1,.309.055.218.218,0,0,1,.151.167c0,.112,0,.256,0,.434s0,.37,0,.578v2.006a1.631,1.631,0,0,1-.151.733,1.392,1.392,0,0,1-.4.494,1.66,1.66,0,0,1-.563.279,2.338,2.338,0,0,1-.631.088,2.312,2.312,0,0,1-.654-.092,1.534,1.534,0,0,1-.551-.287,1.36,1.36,0,0,1-.377-.5,1.8,1.8,0,0,1-.139-.744v-.247q0-.159,0-.366c0-.138,0-.287,0-.446V45.513c0-.08.056-.14.17-.179a1.148,1.148,0,0,1,.377-.059.812.812,0,0,1,.309.055.218.218,0,0,1,.151.167c0,.112,0,.254,0,.426s0,.357,0,.553v1.959a1.06,1.06,0,0,0,.186.676.619.619,0,0,0,.528.223.778.778,0,0,0,.523-.2.888.888,0,0,0,.214-.681v-.334q0-.2,0-.438t0-.494V45.513c0-.08.057-.14.17-.179" transform="translate(-82.803 -18.122)"/><path class="e" d="M220.362,46.175a1.076,1.076,0,0,0-1.149-.083,1.346,1.346,0,0,0-.413.35,1.762,1.762,0,0,0-.285.533,2.084,2.084,0,0,0-.108.685,1.986,1.986,0,0,0,.115.7,1.6,1.6,0,0,0,.305.518,1.3,1.3,0,0,0,.44.323,1.275,1.275,0,0,0,.527.112.979.979,0,0,0,.663-.255,1.2,1.2,0,0,0,.376-.677.214.214,0,0,1,.139-.151.689.689,0,0,1,.265-.048.768.768,0,0,1,.226.036.829.829,0,0,1,.207.1.379.379,0,0,1,.136.148.28.28,0,0,1,.019.191,2.228,2.228,0,0,1-1.372,1.327,2.065,2.065,0,0,1-.666.107,2.516,2.516,0,0,1-.956-.179,2.222,2.222,0,0,1-.758-.5,2.3,2.3,0,0,1-.5-.764,2.555,2.555,0,0,1-.179-.968,2.663,2.663,0,0,1,.174-.967,2.42,2.42,0,0,1,.484-.784,2.246,2.246,0,0,1,.729-.525,2.175,2.175,0,0,1,.912-.191,2.434,2.434,0,0,1,.679.091,2.1,2.1,0,0,1,.567.259,2.253,2.253,0,0,1,.456.4,2.43,2.43,0,0,1,.337.494c.038.069.017.138-.059.207a.893.893,0,0,1-.286.167,1.014,1.014,0,0,1-.333.068c-.109,0-.179-.025-.21-.083a1.8,1.8,0,0,0-.489-.633" transform="translate(-87.522 -18.096)"/><path class="e" d="M231.845,48.662l-.421,1.226a.216.216,0,0,1-.135.128.679.679,0,0,1-.245.04.82.82,0,0,1-.223-.032.745.745,0,0,1-.2-.088.407.407,0,0,1-.131-.127.2.2,0,0,1-.02-.16q.213-.581.424-1.162l.409-1.131q.2-.55.368-1.051t.314-.924a.286.286,0,0,1,.183-.147.89.89,0,0,1,.308-.052.962.962,0,0,1,.33.055.273.273,0,0,1,.187.16l.167.51.285.86q.151.453.313.927t.33.955q.166.482.332.944c.017.064-.018.126-.1.187a1.1,1.1,0,0,1-.293.148,1.119,1.119,0,0,1-.325.059c-.106,0-.174-.023-.207-.076l-.4-1.25Zm.262-.789h.738l-.357-1.082Z" transform="translate(-92.781 -18.085)"/><path class="e" d="M242.745,46.035a.819.819,0,0,1-.051-.3.8.8,0,0,1,.044-.271.189.189,0,0,1,.2-.119h.57q.366,0,.758,0l.749-.008c.238,0,.423-.009.556-.02a.221.221,0,0,1,.223.124.69.69,0,0,1,.055.282A.8.8,0,0,1,245.8,46a.212.212,0,0,1-.223.124c-.105,0-.225,0-.357,0s-.289,0-.468,0v2.452q0,.3,0,.566c0,.175,0,.324,0,.446v.254c0,.091-.057.16-.174.208a1,1,0,0,1-.38.071.842.842,0,0,1-.313-.055c-.093-.037-.14-.094-.14-.167v-.184c0-.074,0-.161,0-.263s0-.212,0-.335v-.844c0-.308,0-.613-.009-.916,0-.254,0-.483,0-.684s0-.38,0-.534l-.808.024a.192.192,0,0,1-.195-.131" transform="translate(-97.705 -18.138)"/><path class="e" d="M253.7,49.375a.256.256,0,0,1,.234-.119h.452v-2.03c0-.224,0-.423,0-.6s0-.336,0-.474c-.074,0-.154,0-.238,0s-.156.007-.214.013a.287.287,0,0,1-.23-.14.51.51,0,0,1-.087-.29.5.5,0,0,1,.075-.271.258.258,0,0,1,.235-.119c.079,0,.164,0,.254,0s.182,0,.277,0c.233,0,.468,0,.706,0s.453-.009.643-.02a.326.326,0,0,1,.242.131.426.426,0,0,1,.1.275.445.445,0,0,1-.087.271.333.333,0,0,1-.246.135c-.063.005-.13.008-.2.008h-.222v3.1h.056c.063,0,.125,0,.186,0s.121-.007.179-.012a.258.258,0,0,1,.257.119.516.516,0,0,1,.091.294.482.482,0,0,1-.082.275.29.29,0,0,1-.258.124h-.191l-.845.016q-.44.007-.837.024a.229.229,0,0,1-.238-.124.607.607,0,0,1-.079-.306.493.493,0,0,1,.076-.271" transform="translate(-102.098 -18.138)"/><path class="e" d="M263.647,46.708a2.419,2.419,0,0,1,.5-.784,2.293,2.293,0,0,1,.753-.525,2.443,2.443,0,0,1,1.9,0,2.3,2.3,0,0,1,.753.525,2.408,2.408,0,0,1,.5.784,2.59,2.59,0,0,1,.179.967,2.734,2.734,0,0,1-.167.967,2.262,2.262,0,0,1-.472.765,2.112,2.112,0,0,1-.741.5,2.54,2.54,0,0,1-.976.179,2.589,2.589,0,0,1-.987-.179,2.2,2.2,0,0,1-.754-.5,2.252,2.252,0,0,1-.484-.765,2.668,2.668,0,0,1-.17-.967,2.589,2.589,0,0,1,.179-.967m3.454.267a1.8,1.8,0,0,0-.3-.537,1.319,1.319,0,0,0-.436-.35,1.163,1.163,0,0,0-1.043,0,1.362,1.362,0,0,0-.436.35,1.731,1.731,0,0,0-.3.537,2.02,2.02,0,0,0-.111.685,2.121,2.121,0,0,0,.108.7,1.527,1.527,0,0,0,.293.518,1.259,1.259,0,0,0,.44.322,1.363,1.363,0,0,0,.554.112,1.29,1.29,0,0,0,.54-.112,1.2,1.2,0,0,0,.424-.322,1.511,1.511,0,0,0,.278-.518,2.3,2.3,0,0,0,.1-.7,2.02,2.02,0,0,0-.111-.685" transform="translate(-106.068 -18.095)"/><path class="e" d="M279.981,45.333a1.146,1.146,0,0,1,.377-.059.909.909,0,0,1,.321.052.18.18,0,0,1,.139.171v1.3q-.008.453-.008.947v1.673a3.33,3.33,0,0,0,.016.414.162.162,0,0,1-.044.112.4.4,0,0,1-.115.084.718.718,0,0,1-.159.055.753.753,0,0,1-.174.02.79.79,0,0,1-.206-.024.206.206,0,0,1-.127-.088h.008q-.111-.175-.3-.486t-.421-.681q-.23-.371-.476-.76t-.459-.724c0,.185,0,.365,0,.537s0,.349,0,.53q0,.517,0,.915c0,.266.007.436.013.51-.011.08-.074.146-.191.2a.869.869,0,0,1-.364.08.788.788,0,0,1-.313-.06c-.093-.04-.139-.1-.139-.172V47.8q0-.39,0-.764t0-.685v-.8a.227.227,0,0,1,.167-.208.88.88,0,0,1,.349-.071.414.414,0,0,1,.341.119c.059.106.157.269.3.489s.294.468.464.745l.246.394c.075.119.144.233.21.338l.195.315c.063.1.131.214.206.33q0-.525,0-1.031t0-.888v-.573c0-.08.057-.14.17-.179" transform="translate(-111.654 -18.122)"/><path class="e" d="M290.433,48.662l-.421,1.226a.216.216,0,0,1-.135.128.681.681,0,0,1-.246.04.818.818,0,0,1-.222-.032.745.745,0,0,1-.2-.088.407.407,0,0,1-.131-.127.2.2,0,0,1-.02-.16q.213-.581.424-1.162l.409-1.131q.2-.55.368-1.051t.314-.924a.286.286,0,0,1,.183-.147.89.89,0,0,1,.308-.052.962.962,0,0,1,.33.055.273.273,0,0,1,.187.16l.167.51.285.86q.151.453.313.927t.329.955q.167.482.333.944c.017.064-.018.126-.1.187a1.1,1.1,0,0,1-.293.148,1.119,1.119,0,0,1-.325.059c-.106,0-.174-.023-.207-.076l-.4-1.25Zm.262-.789h.738l-.357-1.082Z" transform="translate(-116.368 -18.085)"/><path class="e" d="M301.718,45.333a1.119,1.119,0,0,1,.369-.059.941.941,0,0,1,.325.052c.095.035.143.091.143.171v1.41q-.008.429-.008.9v1.417c.058,0,.114,0,.167,0s.108,0,.166,0c.2,0,.4,0,.6,0s.385-.009.555-.02a.252.252,0,0,1,.25.124.541.541,0,0,1,.09.3.5.5,0,0,1-.082.283.282.282,0,0,1-.25.124h-.127l-.794.016q-.4.008-.8.024a.5.5,0,0,1-.154.04c-.056.005-.113.008-.171.008a.8.8,0,0,1-.314-.056.185.185,0,0,1-.131-.176v-2.1q0-.39,0-.772t0-.693v-.8c0-.08.057-.14.17-.179" transform="translate(-121.398 -18.122)"/><path class="e" d="M320.483,45.333a1.073,1.073,0,0,1,.364-.059c.074,0,.139,0,.195.008a.244.244,0,0,1,.131.047c.074,0,.151,0,.23,0s.155,0,.229,0c.228,0,.453,0,.674,0s.423-.01.6-.02a.233.233,0,0,1,.143.028.369.369,0,0,1,.107.091.409.409,0,0,1,.067.132.525.525,0,0,1,.024.155.512.512,0,0,1-.083.287.288.288,0,0,1-.258.127c-.042,0-.09,0-.142,0s-.106,0-.159,0q-.341.008-.639,0c-.2,0-.414,0-.646.012v.4c0,.1,0,.195,0,.282s0,.2,0,.33c.063,0,.126,0,.186,0s.128,0,.2,0q.341,0,.671,0c.219,0,.413-.009.583-.02a.267.267,0,0,1,.254.128.547.547,0,0,1,.008.581.277.277,0,0,1-.254.128c-.059,0-.116,0-.174,0s-.121,0-.19,0q-.341.009-.646,0c-.2,0-.417,0-.639.012V49.16c0,.164,0,.305,0,.422s.007.2.013.247a.166.166,0,0,1-.048.116.389.389,0,0,1-.126.088.825.825,0,0,1-.183.055,1,1,0,0,1-.2.02.785.785,0,0,1-.318-.06.187.187,0,0,1-.134-.172v-2.1q0-.39,0-.772t0-.693v-.8c0-.08.055-.14.167-.179" transform="translate(-128.954 -18.122)"/><path class="e" d="M331.181,46.708a2.418,2.418,0,0,1,.5-.784,2.293,2.293,0,0,1,.753-.525,2.443,2.443,0,0,1,1.9,0,2.3,2.3,0,0,1,.753.525,2.407,2.407,0,0,1,.5.784,2.59,2.59,0,0,1,.179.967,2.733,2.733,0,0,1-.167.967,2.261,2.261,0,0,1-.472.765,2.112,2.112,0,0,1-.741.5,2.54,2.54,0,0,1-.976.179,2.589,2.589,0,0,1-.987-.179,2.2,2.2,0,0,1-.754-.5,2.252,2.252,0,0,1-.484-.765,2.668,2.668,0,0,1-.17-.967,2.59,2.59,0,0,1,.179-.967m3.454.267a1.8,1.8,0,0,0-.3-.537,1.319,1.319,0,0,0-.436-.35,1.163,1.163,0,0,0-1.043,0,1.362,1.362,0,0,0-.436.35,1.73,1.73,0,0,0-.3.537,2.02,2.02,0,0,0-.111.685,2.12,2.12,0,0,0,.108.7,1.526,1.526,0,0,0,.293.518,1.259,1.259,0,0,0,.44.322,1.363,1.363,0,0,0,.554.112,1.29,1.29,0,0,0,.54-.112,1.2,1.2,0,0,0,.424-.322,1.51,1.51,0,0,0,.278-.518,2.3,2.3,0,0,0,.1-.7,2.021,2.021,0,0,0-.111-.685" transform="translate(-133.256 -18.095)"/><path class="e" d="M347.508,45.333a1.143,1.143,0,0,1,.377-.059.814.814,0,0,1,.309.055.218.218,0,0,1,.151.167c0,.112,0,.256,0,.434s0,.37,0,.578v2.006a1.631,1.631,0,0,1-.151.733,1.392,1.392,0,0,1-.4.494,1.659,1.659,0,0,1-.563.279,2.338,2.338,0,0,1-.631.088,2.312,2.312,0,0,1-.654-.092,1.534,1.534,0,0,1-.551-.287,1.36,1.36,0,0,1-.377-.5,1.8,1.8,0,0,1-.139-.744v-.247q0-.159,0-.366c0-.138,0-.287,0-.446V45.513c0-.08.056-.14.17-.179a1.148,1.148,0,0,1,.377-.059.812.812,0,0,1,.309.055.217.217,0,0,1,.151.167c0,.112,0,.254,0,.426s0,.357,0,.553v1.959a1.06,1.06,0,0,0,.186.676.619.619,0,0,0,.527.223.778.778,0,0,0,.523-.2.888.888,0,0,0,.214-.681v-.334q0-.2,0-.438t0-.494V45.513c0-.08.057-.14.17-.179" transform="translate(-138.843 -18.122)"/><path class="e" d="M359.49,45.333a1.145,1.145,0,0,1,.377-.059.908.908,0,0,1,.321.052.18.18,0,0,1,.139.171v1.3q-.008.453-.008.947v1.673a3.334,3.334,0,0,0,.016.414.162.162,0,0,1-.044.112.4.4,0,0,1-.115.084.718.718,0,0,1-.159.055.753.753,0,0,1-.174.02.79.79,0,0,1-.206-.024.206.206,0,0,1-.127-.088h.008q-.111-.175-.3-.486t-.421-.681q-.23-.371-.476-.76t-.459-.724c0,.185,0,.365,0,.537s0,.349,0,.53q0,.517,0,.915c0,.266.007.436.013.51-.011.08-.074.146-.191.2a.87.87,0,0,1-.364.08.788.788,0,0,1-.313-.06c-.093-.04-.139-.1-.139-.172V47.8q0-.39,0-.764t0-.685v-.8a.227.227,0,0,1,.167-.208.879.879,0,0,1,.349-.071.414.414,0,0,1,.341.119c.059.106.157.269.3.489s.295.468.464.745l.246.394c.075.119.144.233.21.338l.195.315c.063.1.131.214.206.33q0-.525,0-1.031t0-.888v-.573c0-.08.057-.14.17-.179" transform="translate(-143.663 -18.122)"/><path class="e" d="M369.026,45.338a1.05,1.05,0,0,1,.369-.064.815.815,0,0,1,.254.032c.063-.011.133-.019.21-.024s.171-.008.281-.008a2.755,2.755,0,0,1,1.007.179,2.359,2.359,0,0,1,.79.5,2.232,2.232,0,0,1,.511.76,2.475,2.475,0,0,1,.182.96,2.629,2.629,0,0,1-.174.972,2.242,2.242,0,0,1-.492.768,2.2,2.2,0,0,1-.765.5,2.653,2.653,0,0,1-1,.179,2.308,2.308,0,0,1-.25-.016c-.093-.011-.178-.024-.257-.04a.941.941,0,0,1-.389.072.807.807,0,0,1-.313-.056.185.185,0,0,1-.131-.176v-2.1q0-.39,0-.772c0-.255,0-.486,0-.693v-.8c0-.074.056-.133.17-.175m.845,3.973a.789.789,0,0,0,.159.016h.167a1.419,1.419,0,0,0,.562-.111,1.253,1.253,0,0,0,.453-.327,1.583,1.583,0,0,0,.3-.525,2.1,2.1,0,0,0,.111-.709,1.88,1.88,0,0,0-.114-.673,1.532,1.532,0,0,0-.318-.509,1.42,1.42,0,0,0-.471-.326,1.452,1.452,0,0,0-.579-.116H370a.8.8,0,0,0-.127.008Z" transform="translate(-148.495 -18.122)"/><path class="e" d="M382.224,48.662l-.421,1.226a.216.216,0,0,1-.135.128.681.681,0,0,1-.246.04.818.818,0,0,1-.222-.032.744.744,0,0,1-.2-.088.406.406,0,0,1-.131-.127.2.2,0,0,1-.02-.16q.213-.581.424-1.162l.409-1.131q.2-.55.368-1.051t.314-.924a.286.286,0,0,1,.183-.147.89.89,0,0,1,.308-.052.962.962,0,0,1,.33.055.273.273,0,0,1,.187.16l.167.51.285.86q.151.453.313.927t.329.955q.167.482.333.944c.017.064-.018.126-.1.187a1.1,1.1,0,0,1-.293.148,1.119,1.119,0,0,1-.325.059c-.106,0-.174-.023-.207-.076l-.4-1.25Zm.262-.789h.738l-.357-1.082Z" transform="translate(-153.321 -18.085)"/><path class="e" d="M393.123,46.035a.807.807,0,0,1-.051-.3.783.783,0,0,1,.044-.271.189.189,0,0,1,.2-.119h.571q.365,0,.758,0l.749-.008c.238,0,.422-.009.556-.02a.219.219,0,0,1,.222.124.689.689,0,0,1,.055.282.8.8,0,0,1-.047.283.21.21,0,0,1-.222.124c-.105,0-.225,0-.357,0s-.289,0-.468,0v2.452c0,.2,0,.39,0,.566s0,.324,0,.446v.254c0,.091-.057.16-.174.208a1,1,0,0,1-.379.071.844.844,0,0,1-.314-.055c-.093-.037-.14-.094-.14-.167v-.184c0-.074,0-.161,0-.263s0-.212,0-.335v-.844c0-.308,0-.613-.01-.916,0-.254,0-.483,0-.684s0-.38,0-.534l-.808.024a.191.191,0,0,1-.194-.131" transform="translate(-158.244 -18.138)"/><path class="e" d="M404.075,49.375a.256.256,0,0,1,.234-.119h.452v-2.03c0-.224,0-.423,0-.6s0-.336,0-.474c-.074,0-.154,0-.238,0s-.156.007-.214.013a.287.287,0,0,1-.23-.14.51.51,0,0,1-.087-.29.5.5,0,0,1,.075-.271.258.258,0,0,1,.235-.119c.079,0,.164,0,.254,0s.182,0,.277,0c.233,0,.468,0,.706,0s.453-.009.643-.02a.326.326,0,0,1,.242.131.427.427,0,0,1,.1.275.445.445,0,0,1-.087.271.333.333,0,0,1-.246.135c-.063.005-.13.008-.2.008h-.222v3.1h.056c.063,0,.125,0,.186,0s.121-.007.179-.012a.258.258,0,0,1,.257.119.516.516,0,0,1,.091.294.482.482,0,0,1-.082.275.29.29,0,0,1-.258.124H406l-.845.016q-.44.007-.837.024a.229.229,0,0,1-.238-.124.607.607,0,0,1-.079-.306.493.493,0,0,1,.076-.271" transform="translate(-162.637 -18.138)"/><path class="e" d="M414.025,46.708a2.418,2.418,0,0,1,.5-.784,2.293,2.293,0,0,1,.753-.525,2.444,2.444,0,0,1,1.9,0,2.3,2.3,0,0,1,.753.525,2.408,2.408,0,0,1,.5.784,2.59,2.59,0,0,1,.179.967,2.732,2.732,0,0,1-.167.967,2.261,2.261,0,0,1-.472.765,2.112,2.112,0,0,1-.741.5,2.54,2.54,0,0,1-.976.179,2.589,2.589,0,0,1-.987-.179,2.192,2.192,0,0,1-.754-.5,2.253,2.253,0,0,1-.484-.765,2.669,2.669,0,0,1-.17-.967,2.59,2.59,0,0,1,.179-.967m3.454.267a1.8,1.8,0,0,0-.3-.537,1.318,1.318,0,0,0-.436-.35,1.163,1.163,0,0,0-1.043,0,1.362,1.362,0,0,0-.436.35,1.73,1.73,0,0,0-.3.537,2.02,2.02,0,0,0-.111.685,2.12,2.12,0,0,0,.108.7,1.526,1.526,0,0,0,.293.518,1.26,1.26,0,0,0,.44.322,1.363,1.363,0,0,0,.554.112,1.29,1.29,0,0,0,.54-.112,1.2,1.2,0,0,0,.424-.322,1.51,1.51,0,0,0,.278-.518,2.3,2.3,0,0,0,.1-.7,2.021,2.021,0,0,0-.111-.685" transform="translate(-166.608 -18.095)"/><path class="e" d="M430.358,45.333a1.145,1.145,0,0,1,.377-.059.909.909,0,0,1,.321.052.18.18,0,0,1,.139.171v1.3q-.008.453-.008.947v1.673a3.34,3.34,0,0,0,.016.414.162.162,0,0,1-.044.112.4.4,0,0,1-.115.084.718.718,0,0,1-.159.055.753.753,0,0,1-.174.02.79.79,0,0,1-.206-.024.206.206,0,0,1-.127-.088h.008q-.111-.175-.3-.486t-.421-.681q-.23-.371-.476-.76t-.459-.724c0,.185,0,.365,0,.537s0,.349,0,.53q0,.517,0,.915c0,.266.007.436.013.51-.011.08-.074.146-.191.2a.87.87,0,0,1-.364.08.788.788,0,0,1-.313-.06c-.093-.04-.139-.1-.139-.172V47.8q0-.39,0-.764t0-.685v-.8a.227.227,0,0,1,.167-.208.88.88,0,0,1,.349-.071.414.414,0,0,1,.341.119c.059.106.157.269.3.489s.295.468.464.745l.246.394c.075.119.144.233.21.338l.195.315c.063.1.131.214.206.33q0-.525,0-1.031t0-.888v-.573c0-.08.057-.14.17-.179" transform="translate(-172.194 -18.122)"/></g></svg>